<svg xmlns="http://www.w3.org/2000/svg" viewBox="0 0 400 300" width="400" height="300">
  <defs>
    <linearGradient id="bg" x1="0%" y1="0%" x2="100%" y2="100%">
      <stop offset="0%" stop-color="#EFF6FF"/>
      <stop offset="100%" stop-color="#DBEAFE"/>
    </linearGradient>
  </defs>
  <rect width="400" height="300" fill="url(#bg)"/>
  <!-- Building -->
  <rect x="100" y="60" width="200" height="200" fill="none" stroke="#1E40AF" stroke-width="2.5"/>
  <line x1="150" y1="60" x2="150" y2="260" stroke="#1E40AF" stroke-width="1.5" stroke-opacity="0.4"/>
  <line x1="200" y1="60" x2="200" y2="260" stroke="#1E40AF" stroke-width="1.5" stroke-opacity="0.4"/>
  <line x1="250" y1="60" x2="250" y2="260" stroke="#1E40AF" stroke-width="1.5" stroke-opacity="0.4"/>
  <rect x="115" y="80" width="25" height="25" fill="#1E40AF" fill-opacity="0.3" rx="2"/>
  <rect x="160" y="80" width="25" height="25" fill="#1E40AF" fill-opacity="0.3" rx="2"/>
  <rect x="215" y="80" width="25" height="25" fill="#1E40AF" fill-opacity="0.3" rx="2"/>
  <rect x="260" y="80" width="25" height="25" fill="#1E40AF" fill-opacity="0.3" rx="2"/>
  <rect x="115" y="120" width="25" height="25" fill="#1E40AF" fill-opacity="0.3" rx="2"/>
  <rect x="160" y="120" width="25" height="25" fill="#1E40AF" fill-opacity="0.3" rx="2"/>
  <rect x="215" y="120" width="25" height="25" fill="#1E40AF" fill-opacity="0.3" rx="2"/>
  <rect x="260" y="120" width="25" height="25" fill="#1E40AF" fill-opacity="0.3" rx="2"/>
  <rect x="115" y="160" width="25" height="25" fill="#1E40AF" fill-opacity="0.3" rx="2"/>
  <rect x="160" y="160" width="25" height="25" fill="#1E40AF" fill-opacity="0.3" rx="2"/>
  <rect x="215" y="160" width="25" height="25" fill="#1E40AF" fill-opacity="0.3" rx="2"/>
  <rect x="260" y="160" width="25" height="25" fill="#1E40AF" fill-opacity="0.3" rx="2"/>
  <!-- Power lines from top -->
  <line x1="200" y1="60" x2="200" y2="15" stroke="#F59E0B" stroke-width="3"/>
  <polygon points="200,8 192,22 208,22" fill="#F59E0B"/>
  <line x1="100" y1="15" x2="300" y2="15" stroke="#1E40AF" stroke-width="1.5" stroke-opacity="0.3"/>
</svg>
