<svg xmlns="http://www.w3.org/2000/svg" viewBox="0 0 400 300" width="400" height="300">
  <defs>
    <linearGradient id="bg" x1="0%" y1="0%" x2="100%" y2="100%">
      <stop offset="0%" stop-color="#EFF6FF"/>
      <stop offset="100%" stop-color="#DBEAFE"/>
    </linearGradient>
  </defs>
  <rect width="400" height="300" fill="url(#bg)"/>
  <!-- Bulb -->
  <path d="M180,200 Q180,140 200,100 Q220,140 220,200 Z" fill="#F59E0B" fill-opacity="0.15" stroke="#F59E0B" stroke-width="2"/>
  <rect x="185" y="200" width="30" height="8" fill="#1E40AF" fill-opacity="0.4" rx="1"/>
  <rect x="193" y="208" width="14" height="6" fill="#1E40AF" fill-opacity="0.3" rx="1"/>
  <!-- Glow rays -->
  <line x1="200" y1="80" x2="200" y2="50" stroke="#F59E0B" stroke-width="2.5" stroke-opacity="0.4"/>
  <line x1="250" y1="110" x2="278" y2="90" stroke="#F59E0B" stroke-width="2" stroke-opacity="0.3"/>
  <line x1="150" y1="110" x2="122" y2="90" stroke="#F59E0B" stroke-width="2" stroke-opacity="0.3"/>
  <line x1="260" y1="155" x2="295" y2="145" stroke="#F59E0B" stroke-width="1.5" stroke-opacity="0.25"/>
  <line x1="140" y1="155" x2="105" y2="145" stroke="#F59E0B" stroke-width="1.5" stroke-opacity="0.25"/>
  <!-- Design accent lines -->
  <line x1="60" y1="250" x2="340" y2="250" stroke="#1E40AF" stroke-width="1" stroke-opacity="0.15"/>
  <circle cx="200" cy="250" r="4" fill="#1E40AF" fill-opacity="0.3"/>
  <circle cx="280" cy="250" r="3" fill="#1E40AF" fill-opacity="0.2"/>
  <circle cx="120" cy="250" r="3" fill="#1E40AF" fill-opacity="0.2"/>
</svg>
